<svg xmlns="http://www.w3.org/2000/svg" width="600" height="600" viewBox="0 0 600 600"><rect width="600" height="600" fill="white"/><g font-family="DejaVu Sans" fill="#1b2330"><text x="20" y="35" font-size="21">Four-legged gait / phase 3</text><path d="M30 468H570" stroke="#9ba9ba" stroke-width="2"/><polyline points="395,252 395,350 395,450" fill="none" stroke="#e08020" stroke-width="27" stroke-linecap="round" stroke-linejoin="round"/><circle cx="395" cy="252" r="9" fill="white" stroke="#e08020" stroke-width="5"/><circle cx="395" cy="350" r="9" fill="white" stroke="#e08020" stroke-width="5"/><circle cx="395" cy="450" r="9" fill="white" stroke="#e08020" stroke-width="5"/><path d="M386 450h40" stroke="#e08020" stroke-width="17" stroke-linecap="round"/><polyline points="175,252 225,325 210,390" fill="none" stroke="#e08020" stroke-width="27" stroke-linecap="round" stroke-linejoin="round"/><circle cx="175" cy="252" r="9" fill="white" stroke="#e08020" stroke-width="5"/><circle cx="225" cy="325" r="9" fill="white" stroke="#e08020" stroke-width="5"/><circle cx="210" cy="390" r="9" fill="white" stroke="#e08020" stroke-width="5"/><path d="M201 390h40" stroke="#e08020" stroke-width="17" stroke-linecap="round"/><ellipse cx="265" cy="225" rx="145" ry="62" fill="#d5dce5" stroke="#586879" stroke-width="3"/><path d="M352 203L385 117L422 95L450 129L416 186L407 258" fill="#d5dce5" stroke="#586879" stroke-width="3"/><path d="M418 91L490 110L517 143L476 161L433 142Z" fill="#d5dce5" stroke="#586879" stroke-width="3"/><polyline points="365,260 409,327 373,397" fill="none" stroke="#147dc1" stroke-width="27" stroke-linecap="round" stroke-linejoin="round"/><circle cx="365" cy="260" r="9" fill="white" stroke="#147dc1" stroke-width="5"/><circle cx="409" cy="327" r="9" fill="white" stroke="#147dc1" stroke-width="5"/><circle cx="373" cy="397" r="9" fill="white" stroke="#147dc1" stroke-width="5"/><path d="M364 397h40" stroke="#147dc1" stroke-width="17" stroke-linecap="round"/><polyline points="145,260 133,350 145,455" fill="none" stroke="#147dc1" stroke-width="27" stroke-linecap="round" stroke-linejoin="round"/><circle cx="145" cy="260" r="9" fill="white" stroke="#147dc1" stroke-width="5"/><circle cx="133" cy="350" r="9" fill="white" stroke="#147dc1" stroke-width="5"/><circle cx="145" cy="455" r="9" fill="white" stroke="#147dc1" stroke-width="5"/><path d="M136 455h40" stroke="#147dc1" stroke-width="17" stroke-linecap="round"/><text x="20" y="520" font-size="18">BLUE = both near limbs</text><text x="20" y="550" font-size="18">ORANGE = both far limbs</text><text x="20" y="580" font-size="18">Pose guide only; original art supplies identity</text></g></svg>